# Blender v2.78 (sub 0) OBJ File: 'pollo.blend'
# www.blender.org
mtllib pollo-cabeza_0.mtl
o Capsule007
v 0.040565 4.866319 0.197278
v 0.699793 4.774479 0.371726
v 0.698697 4.774479 0.018740
v 0.521255 4.774479 -0.286406
v 0.215012 4.774479 -0.461949
v -0.137972 4.774479 -0.460853
v -0.443119 4.774479 -0.283411
v -0.618662 4.774479 0.022831
v -0.617567 4.774479 0.375817
v -0.440124 4.774479 0.680963
v -0.133883 4.774479 0.856506
v 0.219103 4.774479 0.855410
v 0.524249 4.774479 0.677969
v 1.311979 4.505219 -0.147631
v 1.314095 4.505219 0.534285
v 0.969187 4.505219 -0.737128
v 0.377572 4.505219 -1.076252
v -0.304344 4.505219 -1.074134
v -0.893842 4.505219 -0.731343
v -1.232965 4.505219 -0.139728
v -1.230848 4.505219 0.542187
v -0.888057 4.505219 1.131685
v -0.296442 4.505219 1.470809
v 0.385474 4.505219 1.468692
v 0.974971 4.505219 1.125900
v 1.838614 4.076889 -0.290497
v 1.841609 4.076889 0.673878
v 1.353834 4.076889 -1.124172
v 0.517164 4.076889 -1.603765
v -0.447209 4.076889 -1.600771
v -1.280885 4.076889 -1.115991
v -1.760478 4.076889 -0.279321
v -1.757484 4.076889 0.685053
v -1.272704 4.076889 1.518729
v -0.436035 4.076889 1.998323
v 0.528340 4.076889 1.995328
v 1.362014 4.076889 1.510549
v 2.242717 3.518678 -0.400122
v 2.246384 3.518678 0.780991
v 1.648984 3.518678 -1.421161
v 0.624277 3.518678 -2.008541
v -0.556835 3.518678 -2.004874
v -1.577875 3.518678 -1.411141
v -2.165254 3.518678 -0.386434
v -2.161587 3.518678 0.794678
v -1.567855 3.518678 1.815718
v -0.543148 3.518678 2.403097
v 0.637964 3.518678 2.399431
v 1.659004 3.518678 1.805699
v 2.496747 2.868625 -0.469035
v 2.500837 2.868625 0.848325
v 1.834524 2.868625 -1.607856
v 0.691611 2.868625 -2.262994
v -0.625748 2.868625 -2.258903
v -1.764570 2.868625 -1.596680
v -2.419707 2.868625 -0.453768
v -2.415616 2.868625 0.863591
v -1.753394 2.868625 2.002413
v -0.610482 2.868625 2.657550
v 0.706877 2.868625 2.653460
v 1.845698 2.868625 1.991238
v 2.582274 2.171035 -0.492235
v 2.586508 2.171035 0.870995
v 1.896992 2.171035 -1.670711
v 0.714283 2.171035 -2.348660
v -0.648947 2.171035 -2.344427
v -1.827422 2.171035 -1.659146
v -2.505371 2.171035 -0.476437
v -2.501137 2.171035 0.886793
v -1.815858 2.171035 2.065269
v -0.633149 2.171035 2.743218
v 0.730081 2.171035 2.738985
v 1.908557 2.171035 2.053705
v 2.774246 0.828254 -0.544313
v 2.030746 0.890124 -1.805297
v 0.759646 0.973995 -2.520081
v -0.692148 1.057131 -2.503677
v -1.938115 1.117532 -1.769153
v -2.653086 1.139544 -0.515526
v -2.651754 1.117532 0.927652
v -1.932172 1.057132 2.182307
v -0.678512 0.973995 2.914639
v 0.779760 0.890124 2.922112
v 2.049644 0.828254 2.193919
v 2.782056 0.805508 0.922742
v 2.613715 0.372197 1.656578
v 2.692239 0.323265 1.546357
v 2.755754 0.323265 1.435013
v 2.800934 0.382281 1.322729
v 1.421556 0.377551 2.764339
v 1.538762 0.323265 2.710432
v 1.636782 0.323265 2.652917
v 1.738339 0.379464 2.577938
v -0.120864 0.381402 3.095750
v 0.001927 0.323265 3.107474
v 0.094072 0.323265 3.106796
v 0.220345 0.379110 3.093737
v -1.545501 0.381982 2.650365
v -1.446169 0.323265 2.721726
v -1.385637 0.323265 2.756061
v -1.273274 0.381883 2.804797
v -2.642576 0.384482 1.481539
v -2.596601 0.323265 1.589435
v -2.569211 0.323265 1.636081
v -2.495003 0.381323 1.734383
v 0.040565 4.866319 0.197278
v 0.699793 4.774479 0.371726
v 0.699793 4.774479 0.371726
v 0.698697 4.774479 0.018740
v 0.699793 4.774479 0.371726
v 0.698697 4.774479 0.018740
v 0.521255 4.774479 -0.286406
v 0.698697 4.774479 0.018740
v 0.521255 4.774479 -0.286406
v 0.215012 4.774479 -0.461949
v 0.521255 4.774479 -0.286406
v 0.377572 4.505219 -1.076252
v 0.699793 4.774479 0.371726
v 0.377572 4.505219 -1.076252
v 0.517164 4.076889 -1.603765
v 0.377572 4.505219 -1.076252
v 0.517164 4.076889 -1.603765
v 0.624277 3.518678 -2.008541
v 0.517164 4.076889 -1.603765
v 0.624277 3.518678 -2.008541
v 0.691611 2.868625 -2.262994
v 0.624277 3.518678 -2.008541
v 0.691611 2.868625 -2.262994
v 0.714283 2.171035 -2.348660
v 0.691611 2.868625 -2.262994
v 0.714283 2.171035 -2.348660
v 0.759646 0.973995 -2.520081
v 0.714283 2.171035 -2.348660
vt 0.2083 1.0000
vt -0.2437 0.9798
vt -0.1512 0.9798
vt -0.0630 0.9798
vt 0.0199 0.9798
vt 0.0980 0.9798
vt 0.1724 0.9798
vt 0.2451 0.9798
vt 0.3188 0.9798
vt 0.3959 0.9798
vt 0.4786 0.9798
vt 0.5677 0.9798
vt 0.6614 0.9798
vt 1.2083 1.0000
vt 0.7563 0.9798
vt 0.7563 0.9798
vt 0.7530 0.9205
vt 0.8405 0.9205
vt 0.8488 0.9798
vt 0.7563 0.9798
vt 0.8488 0.9798
vt 0.9266 0.9205
vt 0.9370 0.9798
vt 0.8488 0.9798
vt 0.9370 0.9798
vt 1.0105 0.9205
vt 1.0199 0.9798
vt 0.9370 0.9798
vt 0.0105 0.9205
vt 0.0917 0.9205
vt 0.1702 0.9205
vt 0.2473 0.9205
vt 0.3250 0.9205
vt 0.4052 0.9205
vt 0.4891 0.9205
vt 0.5761 0.9205
vt 0.6646 0.9205
vt 0.7563 0.9798
vt 0.7521 0.8262
vt 0.8381 0.8262
vt 0.9234 0.8262
vt 1.0075 0.8262
vt 0.0105 0.9205
vt 0.0075 0.8262
vt 0.0896 0.8262
vt 0.0105 0.9205
vt 0.1695 0.8262
vt 0.2481 0.8262
vt 0.3271 0.8262
vt 0.4083 0.8262
vt 0.4923 0.8262
vt 0.5786 0.8262
vt 0.6655 0.8262
vt 0.7517 0.7034
vt 0.8370 0.7034
vt 0.9219 0.7034
vt 1.0061 0.7034
vt 0.0075 0.8262
vt 0.0061 0.7034
vt 0.0887 0.7034
vt 0.0075 0.8262
vt 0.1692 0.7034
vt 0.2484 0.7034
vt 0.3280 0.7034
vt 0.4096 0.7034
vt 0.4937 0.7034
vt 0.5797 0.7034
vt 0.6659 0.7034
vt 0.7515 0.5603
vt 0.8365 0.5603
vt 0.9213 0.5603
vt 1.0055 0.5603
vt 0.0061 0.7034
vt 0.0055 0.5603
vt 0.0882 0.5603
vt 0.0061 0.7034
vt 0.1690 0.5603
vt 0.2486 0.5603
vt 0.3285 0.5603
vt 0.4102 0.5603
vt 0.4944 0.5603
vt 0.5802 0.5603
vt 0.6661 0.5603
vt 0.7515 0.4067
vt 0.8364 0.4067
vt 0.9211 0.4067
vt 1.0053 0.4067
vt 0.0055 0.5603
vt 0.0053 0.4067
vt 0.0881 0.4067
vt 0.0055 0.5603
vt 0.1690 0.4067
vt 0.2486 0.4067
vt 0.3286 0.4067
vt 0.4104 0.4067
vt 0.4946 0.4067
vt 0.5803 0.4067
vt 0.6662 0.4067
vt 0.8361 0.1112
vt 0.9207 0.1248
vt 1.0050 0.1432
vt 0.0053 0.4067
vt 0.0050 0.1432
vt 0.0879 0.1615
vt 0.0053 0.4067
vt 0.1689 0.1748
vt 0.2487 0.1797
vt 0.3288 0.1748
vt 0.4107 0.1615
vt 0.4949 0.1432
vt 0.5806 0.1248
vt 0.6663 0.1112
vt 0.7514 0.1061
vt 0.7096 0.0108
vt 0.7170 0.0000
vt 0.7239 0.0000
vt 0.7305 0.0130
vt 0.6181 0.0119
vt 0.6254 0.0000
vt 0.6317 0.0000
vt 0.6387 0.0124
vt 0.5282 0.0128
vt 0.5351 0.0000
vt 0.5403 0.0000
vt 0.5474 0.0123
vt 0.4442 0.0129
vt 0.4509 0.0000
vt 0.4547 0.0000
vt 0.4614 0.0129
vt 0.3572 0.0135
vt 0.3634 0.0000
vt 0.3662 0.0000
vt 0.3726 0.0128
vn -0.0110 0.9999 -0.0063
vn 0.1381 0.9904 -0.0004
vn 0.1288 0.9910 -0.0349
vn 0.0941 0.9910 -0.0947
vn 0.0199 0.9698 -0.2429
vn -0.0745 0.9586 -0.2746
vn -0.2018 0.9586 -0.2005
vn -0.2750 0.9586 -0.0728
vn -0.2746 0.9586 0.0745
vn -0.2005 0.9586 0.2018
vn -0.0728 0.9586 0.2750
vn 0.0745 0.9586 0.2746
vn 0.2018 0.9586 0.2005
vn 0.1198 0.9904 0.0687
vn 0.4017 0.9157 -0.0012
vn 0.5067 0.8516 0.1341
vn 0.5058 0.8516 -0.1372
vn 0.3473 0.9157 -0.2019
vn 0.3695 0.8516 -0.3718
vn 0.1998 0.9157 -0.3485
vn 0.2672 0.8433 -0.4662
vn -0.0012 0.9157 -0.4017
vn -0.1372 0.8516 -0.5058
vn -0.3718 0.8516 -0.3695
vn -0.5067 0.8516 -0.1341
vn -0.5058 0.8516 0.1372
vn -0.3695 0.8516 0.3718
vn -0.1341 0.8516 0.5067
vn 0.1372 0.8516 0.5058
vn 0.3718 0.8516 0.3695
vn 0.3485 0.9157 0.1998
vn 0.7009 0.6887 0.1855
vn 0.6998 0.6887 -0.1898
vn 0.5111 0.6887 -0.5143
vn 0.3664 0.6760 -0.6393
vn -0.0020 0.7761 -0.6306
vn -0.1898 0.6887 -0.6998
vn -0.5143 0.6887 -0.5111
vn -0.7009 0.6887 -0.1855
vn -0.6998 0.6887 0.1898
vn -0.5111 0.6887 0.5143
vn -0.1855 0.6887 0.7009
vn 0.1898 0.6887 0.6998
vn 0.5143 0.6887 0.5111
vn 0.8465 0.4829 0.2240
vn 0.8451 0.4829 -0.2293
vn 0.6173 0.4829 -0.6211
vn 0.4389 0.4701 -0.7657
vn -0.0025 0.5867 -0.8098
vn -0.2293 0.4829 -0.8451
vn -0.6211 0.4829 -0.6173
vn -0.8465 0.4829 -0.2240
vn -0.8451 0.4829 0.2293
vn -0.6173 0.4829 0.6211
vn -0.2240 0.4829 0.8465
vn 0.2293 0.4829 0.8451
vn 0.6211 0.4829 0.6173
vn 0.9366 0.2477 0.2478
vn 0.9350 0.2477 -0.2536
vn 0.6829 0.2477 -0.6872
vn 0.4828 0.2398 -0.8422
vn -0.0029 0.3642 -0.9313
vn -0.2536 0.2477 -0.9350
vn -0.6872 0.2477 -0.6829
vn -0.9366 0.2477 -0.2478
vn -0.9350 0.2477 0.2536
vn -0.6829 0.2477 0.6872
vn -0.2478 0.2477 0.9366
vn 0.2536 0.2477 0.9350
vn 0.6872 0.2477 0.6829
vn 0.9577 0.1365 0.2534
vn 0.9561 0.1365 -0.2593
vn 0.6983 0.1365 -0.7027
vn 0.4929 0.1319 -0.8600
vn -0.0031 0.1218 -0.9925
vn -0.2593 0.1365 -0.9561
vn -0.7027 0.1365 -0.6983
vn -0.9577 0.1365 -0.2534
vn -0.9561 0.1365 0.2593
vn -0.6983 0.1365 0.7027
vn -0.2534 0.1365 0.9577
vn 0.2593 0.1365 0.9561
vn 0.7027 0.1365 0.6983
vn 0.9560 0.1465 -0.2541
vn 0.7035 0.1465 -0.6954
vn 0.4923 0.1416 -0.8588
vn -0.0031 0.1416 -0.9899
vn -0.2507 0.1465 -0.9569
vn -0.6981 0.1465 -0.7008
vn -0.9563 0.1465 -0.2530
vn -0.9261 0.1980 0.3212
vn -0.6827 0.2162 0.6980
vn -0.2465 0.2066 0.9468
vn 0.2546 0.2094 0.9441
vn 0.6821 0.2303 0.6939
vn 0.9254 0.2240 0.3057
vn 0.7946 0.4252 0.4333
vn 0.8097 0.3943 0.4346
vn 0.8369 0.2676 0.4774
vn 0.7385 0.4703 0.4831
vn 0.4894 0.3363 0.8046
vn 0.4971 0.3134 0.8091
vn 0.4925 0.2299 0.8394
vn 0.4317 0.3872 0.8146
vn 0.0824 0.3614 0.9287
vn 0.0143 0.3041 0.9525
vn 0.0072 0.2122 0.9772
vn -0.0276 0.3395 0.9402
vn -0.3944 0.3601 0.8454
vn -0.4635 0.3102 0.8300
vn -0.4816 0.2172 0.8490
vn -0.4993 0.3482 0.7934
vn -0.7389 0.4002 0.5419
vn -0.8026 0.3517 0.4818
vn -0.8376 0.2378 0.4918
vn -0.8177 0.4016 0.4123
usemtl Nuovo
s 1
f 1/1/1 2/2/2 3/3/3
f 1/1/1 3/3/3 4/4/4
f 1/1/1 4/4/4 5/5/5
f 1/1/1 5/5/5 6/6/6
f 1/1/1 6/6/6 7/7/7
f 1/1/1 7/7/7 8/8/8
f 1/1/1 8/8/8 9/9/9
f 1/1/1 9/9/9 10/10/10
f 1/1/1 10/10/10 11/11/11
f 1/1/1 11/11/11 12/12/12
f 1/1/1 12/12/12 13/13/13
f 106/14/14 13/13/13 107/15/14
f 108/16/15 15/17/16 14/18/17
f 14/18/17 109/19/15 110/20/15
f 111/21/18 14/18/17 16/22/19
f 16/22/19 112/23/18 113/24/18
f 114/25/20 16/22/19 17/26/21
f 17/26/21 115/27/20 116/28/20
f 5/5/5 117/29/22 18/30/23
f 18/30/23 6/6/6 5/5/5
f 6/6/6 18/30/23 19/31/24
f 19/31/24 7/7/7 6/6/6
f 7/7/7 19/31/24 20/32/25
f 20/32/25 8/8/8 7/7/7
f 8/8/8 20/32/25 21/33/26
f 21/33/26 9/9/9 8/8/8
f 9/9/9 21/33/26 22/34/27
f 22/34/27 10/10/10 9/9/9
f 10/10/10 22/34/27 23/35/28
f 23/35/28 11/11/11 10/10/10
f 11/11/11 23/35/28 24/36/29
f 24/36/29 12/12/12 11/11/11
f 12/12/12 24/36/29 25/37/30
f 25/37/30 13/13/13 12/12/12
f 13/13/13 25/37/30 15/17/16
f 15/17/16 118/38/31 13/13/13
f 15/17/16 27/39/32 26/40/33
f 26/40/33 14/18/17 15/17/16
f 14/18/17 26/40/33 28/41/34
f 28/41/34 16/22/19 14/18/17
f 16/22/19 28/41/34 29/42/35
f 29/42/35 17/26/21 16/22/19
f 119/43/36 120/44/36 30/45/37
f 30/45/37 18/30/23 121/46/36
f 18/30/23 30/45/37 31/47/38
f 31/47/38 19/31/24 18/30/23
f 19/31/24 31/47/38 32/48/39
f 32/48/39 20/32/25 19/31/24
f 20/32/25 32/48/39 33/49/40
f 33/49/40 21/33/26 20/32/25
f 21/33/26 33/49/40 34/50/41
f 34/50/41 22/34/27 21/33/26
f 22/34/27 34/50/41 35/51/42
f 35/51/42 23/35/28 22/34/27
f 23/35/28 35/51/42 36/52/43
f 36/52/43 24/36/29 23/35/28
f 24/36/29 36/52/43 37/53/44
f 37/53/44 25/37/30 24/36/29
f 25/37/30 37/53/44 27/39/32
f 27/39/32 15/17/16 25/37/30
f 27/39/32 39/54/45 38/55/46
f 38/55/46 26/40/33 27/39/32
f 26/40/33 38/55/46 40/56/47
f 40/56/47 28/41/34 26/40/33
f 28/41/34 40/56/47 41/57/48
f 41/57/48 29/42/35 28/41/34
f 122/58/49 123/59/49 42/60/50
f 42/60/50 30/45/37 124/61/49
f 30/45/37 42/60/50 43/62/51
f 43/62/51 31/47/38 30/45/37
f 31/47/38 43/62/51 44/63/52
f 44/63/52 32/48/39 31/47/38
f 32/48/39 44/63/52 45/64/53
f 45/64/53 33/49/40 32/48/39
f 33/49/40 45/64/53 46/65/54
f 46/65/54 34/50/41 33/49/40
f 34/50/41 46/65/54 47/66/55
f 47/66/55 35/51/42 34/50/41
f 35/51/42 47/66/55 48/67/56
f 48/67/56 36/52/43 35/51/42
f 36/52/43 48/67/56 49/68/57
f 49/68/57 37/53/44 36/52/43
f 37/53/44 49/68/57 39/54/45
f 39/54/45 27/39/32 37/53/44
f 39/54/45 51/69/58 50/70/59
f 50/70/59 38/55/46 39/54/45
f 38/55/46 50/70/59 52/71/60
f 52/71/60 40/56/47 38/55/46
f 40/56/47 52/71/60 53/72/61
f 53/72/61 41/57/48 40/56/47
f 125/73/62 126/74/62 54/75/63
f 54/75/63 42/60/50 127/76/62
f 42/60/50 54/75/63 55/77/64
f 55/77/64 43/62/51 42/60/50
f 43/62/51 55/77/64 56/78/65
f 56/78/65 44/63/52 43/62/51
f 44/63/52 56/78/65 57/79/66
f 57/79/66 45/64/53 44/63/52
f 45/64/53 57/79/66 58/80/67
f 58/80/67 46/65/54 45/64/53
f 46/65/54 58/80/67 59/81/68
f 59/81/68 47/66/55 46/65/54
f 47/66/55 59/81/68 60/82/69
f 60/82/69 48/67/56 47/66/55
f 48/67/56 60/82/69 61/83/70
f 61/83/70 49/68/57 48/67/56
f 49/68/57 61/83/70 51/69/58
f 51/69/58 39/54/45 49/68/57
f 51/69/58 63/84/71 62/85/72
f 62/85/72 50/70/59 51/69/58
f 50/70/59 62/85/72 64/86/73
f 64/86/73 52/71/60 50/70/59
f 52/71/60 64/86/73 65/87/74
f 65/87/74 53/72/61 52/71/60
f 128/88/75 129/89/75 66/90/76
f 66/90/76 54/75/63 130/91/75
f 54/75/63 66/90/76 67/92/77
f 67/92/77 55/77/64 54/75/63
f 55/77/64 67/92/77 68/93/78
f 68/93/78 56/78/65 55/77/64
f 56/78/65 68/93/78 69/94/79
f 69/94/79 57/79/66 56/78/65
f 57/79/66 69/94/79 70/95/80
f 70/95/80 58/80/67 57/79/66
f 58/80/67 70/95/80 71/96/81
f 71/96/81 59/81/68 58/80/67
f 59/81/68 71/96/81 72/97/82
f 72/97/82 60/82/69 59/81/68
f 60/82/69 72/97/82 73/98/83
f 73/98/83 61/83/70 60/82/69
f 61/83/70 73/98/83 63/84/71
f 63/84/71 51/69/58 61/83/70
f 62/85/72 74/99/84 75/100/85
f 75/100/85 64/86/73 62/85/72
f 64/86/73 75/100/85 76/101/86
f 76/101/86 65/87/74 64/86/73
f 131/102/87 132/103/87 77/104/88
f 77/104/88 66/90/76 133/105/87
f 66/90/76 77/104/88 78/106/89
f 78/106/89 67/92/77 66/90/76
f 67/92/77 78/106/89 79/107/90
f 79/107/90 68/93/78 67/92/77
f 79/107/90 80/108/91 69/94/79
f 69/94/79 68/93/78 79/107/90
f 80/108/91 81/109/92 70/95/80
f 70/95/80 69/94/79 80/108/91
f 81/109/92 82/110/93 71/96/81
f 71/96/81 70/95/80 81/109/92
f 82/110/93 83/111/94 72/97/82
f 72/97/82 71/96/81 82/110/93
f 83/111/94 84/112/95 73/98/83
f 73/98/83 72/97/82 83/111/94
f 84/112/95 85/113/96 63/84/71
f 63/84/71 73/98/83 84/112/95
f 86/114/97 87/115/98 85/113/96
f 85/113/96 84/112/95 86/114/97
f 87/115/98 88/116/99 89/117/100
f 89/117/100 85/113/96 87/115/98
f 90/118/101 91/119/102 84/112/95
f 84/112/95 83/111/94 90/118/101
f 91/119/102 92/120/103 93/121/104
f 93/121/104 84/112/95 91/119/102
f 82/110/93 94/122/105 95/123/106
f 95/123/106 83/111/94 82/110/93
f 95/123/106 96/124/107 97/125/108
f 97/125/108 83/111/94 95/123/106
f 81/109/92 98/126/109 99/127/110
f 99/127/110 82/110/93 81/109/92
f 99/127/110 100/128/111 101/129/112
f 101/129/112 82/110/93 99/127/110
f 80/108/91 102/130/113 103/131/114
f 103/131/114 81/109/92 80/108/91
f 103/131/114 104/132/115 105/133/116
f 105/133/116 81/109/92 103/131/114
f 74/99/84 62/85/72 63/84/71
f 63/84/71 85/113/96 74/99/84
