# Blender v2.78 (sub 0) OBJ File: ''
# www.blender.org
mtllib cube_1.mtl
o Cube
v 1.000000 -1.000000 -1.000000
v 1.000000 -1.000000 1.000000
v -1.000000 -1.000000 1.000000
v -1.000000 -1.000000 -1.000000
v 1.000000 1.000000 -0.999999
v 0.999999 1.000000 1.000001
v -1.000000 1.000000 1.000000
v -1.000000 1.000000 -1.000000
v 1.000000 1.000000 0.000001
v 0.000000 1.000000 -1.000000
v -0.000001 1.000000 1.000000
v -1.000000 1.000000 -0.000000
v -0.000000 1.000000 0.000000
v 1.000000 1.000000 0.500001
v -0.500000 1.000000 -1.000000
v -0.500000 1.000000 1.000000
v -1.000000 1.000000 -0.500000
v 1.000000 1.000000 -0.499999
v 0.500000 1.000000 -1.000000
v 0.499999 1.000000 1.000000
v -1.000000 1.000000 0.500000
v -0.000000 1.000000 0.500000
v 0.000000 1.000000 -0.500000
v 0.500000 1.000000 0.000000
v -0.500000 1.000000 0.000000
v -0.500000 1.000000 -0.500000
v 0.500000 1.000000 -0.500000
v 0.500000 1.000000 0.500000
v -0.500000 1.000000 0.500000
v -0.500000 1.351750 0.000000
v -0.000000 1.351750 0.000000
v -0.000000 1.351750 0.500000
v -0.500000 1.351750 0.500000
vt 0.6693 0.0000
vt 1.0000 0.0000
vt 1.0000 0.4960
vt 0.6693 0.4960
vt 0.9167 0.8750
vt 1.0000 0.8750
vt 1.0000 1.0000
vt 0.9167 1.0000
vt 0.0000 0.5040
vt 0.3333 0.5040
vt 0.3333 0.6280
vt 0.3333 0.7520
vt 0.3333 0.8760
vt 0.3333 1.0000
vt 0.0000 1.0000
vt 0.3360 0.5000
vt 0.6693 0.5000
vt 0.6693 0.6250
vt 0.6693 0.7500
vt 0.6693 0.8750
vt 0.6693 1.0000
vt 0.3360 1.0000
vt 0.3333 0.0000
vt 0.6667 0.0000
vt 0.6667 0.1250
vt 0.6667 0.2500
vt 0.6667 0.3750
vt 0.6667 0.5000
vt 0.3333 0.5000
vt 0.0000 0.0000
vt 0.3360 0.0000
vt 0.3360 0.5000
vt 0.0000 0.5000
vt 0.0000 0.3750
vt 0.0000 0.2500
vt 0.0000 0.1250
vt 0.7500 0.8750
vt 0.8333 0.8750
vt 0.8333 1.0000
vt 0.7500 1.0000
vt 0.7500 0.6250
vt 0.8333 0.6250
vt 0.8333 0.7500
vt 0.7500 0.7500
vt 0.9167 0.6250
vt 1.0000 0.6250
vt 1.0000 0.7500
vt 0.9167 0.7500
vt 0.8333 0.5000
vt 0.9167 0.5000
vt 1.0000 0.5000
vt 0.6667 0.6250
vt 0.6667 0.7500
vt 0.6667 0.5000
vt 0.7500 0.5000
vt 0.6667 0.8750
vt 0.6667 1.0000
vt 0.9167 0.8750
vt 0.9167 0.7500
vt 0.8333 0.7500
vt 0.8333 0.8750
vn 0.0000 -1.0000 0.0000
vn 0.0000 1.0000 0.0000
vn 1.0000 0.0000 0.0000
vn -0.0000 -0.0000 1.0000
vn -1.0000 -0.0000 -0.0000
vn 0.0000 0.0000 -1.0000
usemtl Material
s off
f 1/1/1 2/2/1 3/3/1 4/4/1
f 29/5/2 21/6/2 7/7/2 16/8/2
f 1/9/3 5/10/3 18/11/3 9/12/3 14/13/3 6/14/3 2/15/3
f 2/16/4 6/17/4 20/18/4 11/19/4 16/20/4 7/21/4 3/22/4
f 3/23/5 7/24/5 21/25/5 12/26/5 17/27/5 8/28/5 4/29/5
f 5/30/6 1/31/6 4/32/6 8/33/6 15/34/6 10/35/6 19/36/6
f 28/37/2 22/38/2 11/39/2 20/40/2
f 27/41/2 23/42/2 13/43/2 24/44/2
f 26/45/2 17/46/2 12/47/2 25/48/2
f 23/42/2 26/45/2 25/48/2 13/43/2
f 10/49/2 15/50/2 26/45/2 23/42/2
f 15/50/2 8/51/2 17/46/2 26/45/2
f 18/52/2 27/41/2 24/44/2 9/53/2
f 5/54/2 19/55/2 27/41/2 18/52/2
f 19/55/2 10/49/2 23/42/2 27/41/2
f 14/56/2 28/37/2 20/40/2 6/57/2
f 9/53/2 24/44/2 28/37/2 14/56/2
f 24/44/2 13/43/2 22/38/2 28/37/2
f 22/38/2 29/5/2 16/8/2 11/39/2
f 25/48/5 29/5/5 33/58/5 30/59/5
f 25/48/2 12/47/2 21/6/2 29/5/2
f 31/60/2 30/59/2 33/58/2 32/61/2
f 13/43/6 25/48/6 30/59/6 31/60/6
f 22/38/3 13/43/3 31/60/3 32/61/3
f 29/5/4 22/38/4 32/61/4 33/58/4
